<?xml version="1.0" encoding="UTF-8" standalone="no"?>
<!-- Generator: Adobe Illustrator 26.0.1, SVG Export Plug-In . SVG Version: 6.00 Build 0)  -->

<svg
   version="1.1"
   id="Layer_1"
   x="0px"
   y="0px"
   viewBox="0 0 199.51418 33.060036"
   xml:space="preserve"
   sodipodi:docname="Quantinuum_(word_trademark).svg"
   width="399.02835"
   height="66.120071"
   inkscape:version="1.2.2 (732a01da63, 2022-12-09)"
   xmlns:inkscape="http://www.inkscape.org/namespaces/inkscape"
   xmlns:sodipodi="http://sodipodi.sourceforge.net/DTD/sodipodi-0.dtd"
   xmlns="http://www.w3.org/2000/svg"
   xmlns:svg="http://www.w3.org/2000/svg"><defs
   id="defs27" /><sodipodi:namedview
   id="namedview25"
   pagecolor="#ffffff"
   bordercolor="#000000"
   borderopacity="0.25"
   inkscape:showpageshadow="2"
   inkscape:pageopacity="0.0"
   inkscape:pagecheckerboard="0"
   inkscape:deskcolor="#d1d1d1"
   showgrid="false"
   inkscape:zoom="7.3923478"
   inkscape:cx="100.91516"
   inkscape:cy="17.721028"
   inkscape:window-width="3440"
   inkscape:window-height="1346"
   inkscape:window-x="-11"
   inkscape:window-y="-11"
   inkscape:window-maximized="1"
   inkscape:current-layer="Layer_1" />
<style
   type="text/css"
   id="style2">
	.st0{fill:#D9D9D6;}
	.st1{fill:#FFFFFF;}
	.st2{fill:#698197;}
	.st3{fill:#010101;}
</style>
<g
   id="g22"
   transform="translate(-2.0458374,-2.4699641)">
	<g
   id="g14">
		<g
   id="g12">
			<g
   id="g6">
				<path
   class="st2"
   d="m 35.06,18.99 c 0,2.06 -0.37,4.06 -1.1,5.95 H 31.64 C 32.24,11.8 15.22,6.07 7.72,16.83 6.5,12.76 7.83,8.17 10.96,5.38 c 0,0 0,0 0,0 1.14,-1.04 2.5,-1.84 3.95,-2.33 10.02,-2.93 20.31,5.68 20.15,15.94 z"
   id="path4" />
			</g>
			<g
   id="g10">
				<path
   class="st2"
   d="m 35.06,26.83 v 8.7 H 18.52 c -0.21,0 -0.4,0 -0.59,-0.02 C 13.64,35.36 9.63,33.57 6.64,30.48 0.16,24.18 0.66,12.56 7.35,6.81 5,10.54 4.75,15.46 6.69,19.4 c 2.15,4.47 6.82,7.43 11.83,7.42 0,0.01 16.54,0.01 16.54,0.01 z"
   id="path8" />
			</g>
		</g>
	</g>
	<g
   id="g20">
		<g
   id="g18">
			<path
   class="st2"
   d="m 114.52,16.51 h 4.97 v 8.5 h 1.96 v -8.5 h 4.97 v -1.96 h -11.9 z m -5.64,6.13 -8.21,-8.08 h -2.25 v 10.46 h 1.96 v -8.03 l 7.92,8.03 h 2.55 V 14.55 h -1.96 v 8.09 z m -22.1,-8.09 -5.34,10.46 h 2.19 l 0.79,-1.57 h 7.34 l 0.79,1.57 h 2.2 L 89.41,14.55 Z m -1.36,6.94 2.67,-5.21 2.67,5.21 z M 61.7,23.44 h 2.15 l 0.04,-0.12 c 0.53,-1.46 0.54,-2.96 0.02,-4.46 -0.78,-2.3 -2.81,-4.05 -5.18,-4.47 -0.4,-0.07 -0.81,-0.11 -1.23,-0.11 -1.81,0 -3.51,0.7 -4.79,1.98 -1.28,1.28 -1.98,2.98 -1.98,4.8 0,3.67 2.98,6.7 6.65,6.77 l 0.3,0.01 h 6.43 0.17 v -1.96 h -6.8 c -1.95,0 -3.72,-1.16 -4.41,-2.88 -0.64,-1.59 -0.49,-3.28 0.44,-4.64 0.9,-1.33 2.39,-2.13 3.99,-2.13 0.35,0 0.7,0.04 1.07,0.11 1.76,0.38 3.18,1.77 3.62,3.55 0.28,1.13 0.15,2.27 -0.36,3.28 z m 15.52,-3.83 c 0,2.03 -1.65,3.68 -3.68,3.68 -2.03,0 -3.68,-1.65 -3.68,-3.68 V 14.55 H 67.9 v 5.06 c 0,3.11 2.53,5.64 5.63,5.64 3.11,0 5.63,-2.53 5.63,-5.64 V 14.55 H 77.2 v 5.06 z m 121.32,-5.06 -4.91,8.94 -4.96,-8.94 h -3.03 v 10.46 h 1.96 v -8.36 l 4.63,8.36 h 2.8 l 4.57,-8.32 v 8.32 h 1.96 V 14.55 Z m -19.13,5.06 c 0,2.03 -1.65,3.68 -3.68,3.68 -2.03,0 -3.68,-1.65 -3.68,-3.68 v -5.06 h -1.96 v 5.06 c 0,3.11 2.53,5.64 5.64,5.64 3.11,0 5.63,-2.53 5.63,-5.64 v -5.06 h -1.96 v 5.06 z m -31.16,3.03 -8.21,-8.08 h -2.25 v 10.46 h 1.96 v -8.03 l 7.92,8.03 h 2.55 V 14.55 h -1.96 v 8.09 z m 15.65,-3.03 c 0,2.03 -1.65,3.68 -3.68,3.68 -2.03,0 -3.68,-1.65 -3.68,-3.68 v -5.06 h -1.96 v 5.06 c 0,3.11 2.53,5.64 5.63,5.64 3.11,0 5.64,-2.53 5.64,-5.64 v -5.06 h -1.96 v 5.06 z m -33.27,5.4 h 1.96 V 14.55 h -1.96 z"
   id="path16" />
		</g>
	</g>
</g>
</svg>
